ffmpeg started on 2016-12-05 at 10:55:54
Report written to "Output/x264/results/ffmpeg/crowd_run_2160p50faster1000k.log"
Command line:
Tools/ffmpeg/ffmpeg -benchmark -y -i Input/y4m/crowd_run_2160p50.y4m -c:v libx264 -preset faster -b:v 1000k -an Output/x264/encoded/crowd_run_2160p50faster1000k.mkv
ffmpeg version N-82227-gdb23fde Copyright (c) 2000-2016 the FFmpeg developers
  built with gcc 5.4.0 (Ubuntu 5.4.0-6ubuntu1~16.04.2) 20160609
  configuration: --prefix=/home/jaroslav/ffmpeg_build --pkg-config-flags=--static --extra-cflags=-I/home/jaroslav/ffmpeg_build/include --extra-ldflags=-L/home/jaroslav/ffmpeg_build/lib --bindir=/home/jaroslav/bin --enable-gpl --enable-libass --enable-libfdk-aac --enable-libfreetype --enable-libmp3lame --enable-libopus --enable-libtheora --enable-libvorbis --enable-libvpx --enable-libx264 --enable-libx265 --enable-nvenc --enable-libmfx --enable-libxvid --enable-libgsm --enable-libopencore-amrnb --enable-version3 --enable-nonfree
  libavutil      55. 35.100 / 55. 35.100
  libavcodec     57. 66.101 / 57. 66.101
  libavformat    57. 57.100 / 57. 57.100
  libavdevice    57.  2.100 / 57.  2.100
  libavfilter     6. 66.100 /  6. 66.100
  libswscale      4.  3.100 /  4.  3.100
  libswresample   2.  4.100 /  2.  4.100
  libpostproc    54.  2.100 / 54.  2.100
Input #0, yuv4mpegpipe, from 'Input/y4m/crowd_run_2160p50.y4m':
  Duration: 00:00:10.00, start: 0.000000, bitrate: 4976642 kb/s
    Stream #0:0: Video: rawvideo (I420 / 0x30323449), yuv420p(progressive), 3840x2160, SAR 1:1 DAR 16:9, 50 fps, 50 tbr, 50 tbn, 50 tbc
[libx264 @ 0x3a141c0] using SAR=1/1
[libx264 @ 0x3a141c0] using cpu capabilities: MMX2 SSE2Fast SSSE3 SSE4.2 AVX FMA3 AVX2 LZCNT BMI2
[libx264 @ 0x3a141c0] profile High, level 5.2
[libx264 @ 0x3a141c0] 264 - core 148 - H.264/MPEG-4 AVC codec - Copyleft 2003-2016 - http://www.videolan.org/x264.html - options: cabac=1 ref=2 deblock=1:0:0 analyse=0x3:0x113 me=hex subme=4 psy=1 psy_rd=1.00:0.00 mixed_ref=0 me_range=16 chroma_me=1 trellis=1 8x8dct=1 cqm=0 deadzone=21,11 fast_pskip=1 chroma_qp_offset=0 threads=6 lookahead_threads=1 sliced_threads=0 nr=0 decimate=1 interlaced=0 bluray_compat=0 constrained_intra=0 bframes=3 b_pyramid=2 b_adapt=1 b_bias=0 direct=1 weightb=1 open_gop=0 weightp=1 keyint=250 keyint_min=25 scenecut=40 intra_refresh=0 rc_lookahead=20 rc=abr mbtree=1 bitrate=1000 ratetol=1.0 qcomp=0.60 qpmin=0 qpmax=69 qpstep=4 ip_ratio=1.40 aq=1:1.00
Output #0, matroska, to 'Output/x264/encoded/crowd_run_2160p50faster1000k.mkv':
  Metadata:
    encoder         : Lavf57.57.100
    Stream #0:0: Video: h264 (libx264) (H264 / 0x34363248), yuv420p, 3840x2160 [SAR 1:1 DAR 16:9], q=-1--1, 1000 kb/s, 50 fps, 1k tbn, 50 tbc
    Metadata:
      encoder         : Lavc57.66.101 libx264
    Side data:
      cpb: bitrate max/min/avg: 0/0/1000000 buffer size: 0 vbv_delay: -1
Stream mapping:
  Stream #0:0 -> #0:0 (rawvideo (native) -> h264 (libx264))
Press [q] to stop, [?] for help
frame=   10 fps=0.0 q=0.0 size=       0kB time=00:00:00.00 bitrate=N/A speed=   0x    frame=   17 fps= 12 q=0.0 size=       0kB time=00:00:00.00 bitrate=N/A speed=   0x    frame=   27 fps= 10 q=0.0 size=       0kB time=00:00:00.00 bitrate=N/A speed=   0x    frame=   36 fps= 11 q=59.0 size=       1kB time=00:00:00.06 bitrate=  96.1kbits/s speed=0.0181x    frame=   44 fps= 11 q=69.0 size=       1kB time=00:00:00.22 bitrate=  26.5kbits/s speed=0.0567x    frame=   53 fps= 12 q=69.0 size=       1kB time=00:00:00.40 bitrate=  14.6kbits/s speed=0.0907x    frame=   62 fps= 13 q=69.0 size=       1kB time=00:00:00.58 bitrate=  10.1kbits/s speed=0.118x    frame=   71 fps= 13 q=69.0 size=       1kB time=00:00:00.76 bitrate=   7.7kbits/s speed=0.14x    frame=   80 fps= 13 q=69.0 size=       1kB time=00:00:00.94 bitrate=   6.2kbits/s speed=0.155x    frame=   89 fps= 13 q=69.0 size=       1kB time=00:00:01.12 bitrate=   5.2kbits/s speed=0.17x    frame=   98 fps= 14 q=69.0 size=       1kB time=00:00:01.30 bitrate=   4.5kbits/s speed=0.183x    frame=  107 fps= 14 q=69.0 size=       1kB time=00:00:01.48 bitrate=   4.0kbits/s speed=0.194x    frame=  116 fps= 14 q=69.0 size=       1kB time=00:00:01.66 bitrate=   3.5kbits/s speed=0.201x    frame=  125 fps= 14 q=69.0 size=       1kB time=00:00:01.84 bitrate=   3.2kbits/s speed=0.21x    frame=  133 fps= 14 q=69.0 size=       1kB time=00:00:02.00 bitrate=   2.9kbits/s speed=0.211x    frame=  144 fps= 14 q=69.0 size=       1kB time=00:00:02.22 bitrate=   2.6kbits/s speed=0.221x    frame=  153 fps= 14 q=69.0 size=       1kB time=00:00:02.40 bitrate=   2.4kbits/s speed=0.227x    frame=  162 fps= 15 q=69.0 size=       1kB time=00:00:02.58 bitrate=   2.3kbits/s speed=0.233x    frame=  167 fps= 14 q=69.0 size=       1kB time=00:00:02.68 bitrate=   2.2kbits/s speed=0.23x    frame=  176 fps= 14 q=69.0 size=       1kB time=00:00:02.86 bitrate=   2.0kbits/s speed=0.235x    frame=  185 fps= 15 q=69.0 size=       1kB time=00:00:03.04 bitrate=   1.9kbits/s speed=0.24x    frame=  194 fps= 15 q=69.0 size=       1kB time=00:00:03.22 bitrate=   1.8kbits/s speed=0.244x    frame=  203 fps= 15 q=69.0 size=       1kB time=00:00:03.40 bitrate=   1.7kbits/s speed=0.248x    frame=  212 fps= 15 q=69.0 size=       1kB time=00:00:03.58 bitrate=   1.6kbits/s speed=0.25x    frame=  221 fps= 15 q=69.0 size=       1kB time=00:00:03.76 bitrate=   1.6kbits/s speed=0.254x    frame=  230 fps= 15 q=69.0 size=       1kB time=00:00:03.94 bitrate=   1.5kbits/s speed=0.257x    frame=  239 fps= 15 q=69.0 size=       1kB time=00:00:04.12 bitrate=   1.4kbits/s speed=0.26x    frame=  248 fps= 15 q=69.0 size=       1kB time=00:00:04.30 bitrate=   1.4kbits/s speed=0.261x    frame=  257 fps= 15 q=69.0 size=       1kB time=00:00:04.48 bitrate=   1.3kbits/s speed=0.264x    frame=  266 fps= 15 q=69.0 size=       1kB time=00:00:04.66 bitrate=   1.3kbits/s speed=0.267x    frame=  275 fps= 15 q=69.0 size=       1kB time=00:00:04.84 bitrate=   1.2kbits/s speed=0.269x    frame=  277 fps= 15 q=69.0 size=       1kB time=00:00:04.88 bitrate=   1.2kbits/s speed=0.261x    frame=  286 fps= 15 q=69.0 size=    1063kB time=00:00:05.06 bitrate=1720.5kbits/s speed=0.263x    frame=  295 fps= 15 q=69.0 size=    1063kB time=00:00:05.24 bitrate=1661.4kbits/s speed=0.266x    frame=  304 fps= 15 q=69.0 size=    1063kB time=00:00:05.42 bitrate=1606.2kbits/s speed=0.268x    frame=  313 fps= 15 q=69.0 size=    1063kB time=00:00:05.60 bitrate=1554.6kbits/s speed=0.27x    frame=  322 fps= 15 q=69.0 size=    1063kB time=00:00:05.78 bitrate=1506.2kbits/s speed=0.268x    frame=  331 fps= 15 q=69.0 size=    1063kB time=00:00:05.96 bitrate=1460.7kbits/s speed=0.27x    frame=  340 fps= 15 q=69.0 size=    1063kB time=00:00:06.14 bitrate=1417.9kbits/s speed=0.272x    frame=  349 fps= 15 q=69.0 size=    1063kB time=00:00:06.32 bitrate=1377.5kbits/s speed=0.273x    frame=  358 fps= 15 q=69.0 size=    1063kB time=00:00:06.50 bitrate=1339.4kbits/s speed=0.274x    frame=  366 fps= 15 q=69.0 size=    1063kB time=00:00:06.66 bitrate=1307.2kbits/s speed=0.273x    frame=  375 fps= 15 q=69.0 size=    1063kB time=00:00:06.84 bitrate=1272.8kbits/s speed=0.275x    frame=  384 fps= 15 q=69.0 size=    1063kB time=00:00:07.02 bitrate=1240.2kbits/s speed=0.276x    frame=  393 fps= 15 q=69.0 size=    1063kB time=00:00:07.20 bitrate=1209.2kbits/s speed=0.278x    frame=  402 fps= 15 q=69.0 size=    1063kB time=00:00:07.38 bitrate=1179.7kbits/s speed=0.278x    frame=  411 fps= 15 q=69.0 size=    1063kB time=00:00:07.56 bitrate=1151.6kbits/s speed=0.28x    frame=  420 fps= 15 q=69.0 size=    1063kB time=00:00:07.74 bitrate=1124.8kbits/s speed=0.281x    frame=  429 fps= 15 q=69.0 size=    1063kB time=00:00:07.92 bitrate=1099.3kbits/s speed=0.282x    frame=  438 fps= 15 q=69.0 size=    1063kB time=00:00:08.10 bitrate=1074.9kbits/s speed=0.282x    frame=  443 fps= 15 q=69.0 size=    1063kB time=00:00:08.20 bitrate=1061.8kbits/s speed=0.28x    frame=  454 fps= 15 q=69.0 size=    1063kB time=00:00:08.42 bitrate=1034.0kbits/s speed=0.282x    frame=  463 fps= 15 q=69.0 size=    1063kB time=00:00:08.60 bitrate=1012.4kbits/s speed=0.283x    frame=  472 fps= 15 q=69.0 size=    1063kB time=00:00:08.78 bitrate= 991.6kbits/s speed=0.285x    frame=  481 fps= 15 q=69.0 size=    1063kB time=00:00:08.96 bitrate= 971.7kbits/s speed=0.286x    frame=  490 fps= 15 q=69.0 size=    1063kB time=00:00:09.14 bitrate= 952.6kbits/s speed=0.286x    frame=  498 fps= 15 q=69.0 size=    1063kB time=00:00:09.30 bitrate= 936.2kbits/s speed=0.286x    frame=  500 fps= 15 q=-1.0 Lsize=    1940kB time=00:00:09.94 bitrate=1598.8kbits/s speed=0.296x    
video:1936kB audio:0kB subtitle:0kB other streams:0kB global headers:0kB muxing overhead: 0.218019%
bench: utime=88.492s
bench: maxrss=1337452kB
[libx264 @ 0x3a141c0] frame I:2     Avg QP:50.12  size: 34804
[libx264 @ 0x3a141c0] frame P:126   Avg QP:51.00  size:  8924
[libx264 @ 0x3a141c0] frame B:372   Avg QP:51.00  size:  2117
[libx264 @ 0x3a141c0] consecutive B-frames:  0.8%  0.0%  0.0% 99.2%
[libx264 @ 0x3a141c0] mb I  I16..4: 61.0% 39.0%  0.0%
[libx264 @ 0x3a141c0] mb P  I16..4:  3.6%  0.6%  0.0%  P16..4: 13.2%  1.2%  0.3%  0.0%  0.0%    skip:81.0%
[libx264 @ 0x3a141c0] mb B  I16..4:  0.0%  0.0%  0.0%  B16..8:  3.8%  0.0%  0.0%  direct: 0.1%  skip:96.1%  L0:46.1% L1:53.9% BI: 0.0%
[libx264 @ 0x3a141c0] final ratefactor: 64.48
[libx264 @ 0x3a141c0] 8x8 transform intra:21.6% inter:95.8%
[libx264 @ 0x3a141c0] coded y,uvDC,uvAC intra: 2.7% 9.0% 0.9% inter: 0.0% 0.1% 0.0%
[libx264 @ 0x3a141c0] i16 v,h,dc,p: 90%  6%  3%  1%
[libx264 @ 0x3a141c0] i8 v,h,dc,ddl,ddr,vr,hd,vl,hu: 13%  9% 63%  3%  2%  2%  2%  2%  3%
[libx264 @ 0x3a141c0] i8c dc,h,v,p: 99%  1%  1%  0%
[libx264 @ 0x3a141c0] Weighted P-Frames: Y:1.6% UV:0.0%
[libx264 @ 0x3a141c0] ref P L0: 55.6% 44.4%
[libx264 @ 0x3a141c0] ref B L0: 75.1% 24.9%
[libx264 @ 0x3a141c0] ref B L1: 87.1% 12.9%
[libx264 @ 0x3a141c0] kb/s:1585.37
